<svg xmlns="http://www.w3.org/2000/svg" viewBox="0 0 60.002 60.002" style="enable-background:new 0 0 60.002 60.002" xml:space="preserve">
  <path d="M59.795 26.569c-.401-1.698-1.364-3.157-2.576-3.903-.811-.499-1.676-.662-2.508-.461a2.817 2.817 0 0 0-.549.198c-2.336-5.685-5.98-9.364-9.727-11.737l1.36-2.719a1 1 0 0 0-1.789-.895l-1.303 2.605a27.067 27.067 0 0 0-1.838-.892l.983-2.949a1 1 0 1 0-1.897-.633l-.948 2.844a30.004 30.004 0 0 0-2.012-.642l.857-2.57a1 1 0 1 0-1.897-.633l-.908 2.724a29.316 29.316 0 0 0-3.143-.488V4.5a1 1 0 1 0-2 0v1.844c-.525.026-1.441.097-2.632.283l-.382-2.292a.994.994 0 0 0-1.15-.822 1 1 0 0 0-.822 1.15l.39 2.34a30.264 30.264 0 0 0-3.509 1.02l-.947-2.841a1 1 0 1 0-1.897.633l.981 2.944c-.863.378-1.742.822-2.621 1.327l-1.517-3.035a1 1 0 0 0-1.789.895l1.601 3.202a24.666 24.666 0 0 0-2.594 2.05l-2.406-2.406a.999.999 0 1 0-1.414 1.414l2.388 2.388c-3.076 3.273-5.646 7.835-6.826 14.214-.015.083-.025.166-.04.249a2.918 2.918 0 0 0-.776-.118C1.73 28.939 0 31.322 0 34.363s1.73 5.424 3.939 5.424c.404 0 .798-.102 1.177-.267.701 2.671 1.863 5.179 3.458 7.379 3.244 4.473 9.613 9.769 21.817 9.602.186.003.368.004.551.004 11.796 0 18.07-5.202 21.267-9.605 2.881-3.971 4.346-8.946 4.229-14.077.035.001.071.014.105.014.227 0 .451-.025.671-.078 2.149-.513 3.282-3.232 2.581-6.19zM4.674 37.489c-.206.166-.456.298-.734.298-.918 0-1.94-1.407-1.94-3.424s1.022-3.424 1.939-3.424c.167 0 .335.047.504.139a25.03 25.03 0 0 0-.096 1.589c-.001.044 0 .088-.002.132a25.09 25.09 0 0 0 .09 2.752c.014.158.023.315.04.473.047.432.105.862.175 1.289.009.058.014.117.024.176zm45.917 8.236c-4.318 5.949-11.11 8.915-20.185 8.775h-.027c-9.094.157-15.869-2.826-20.185-8.775-2.062-2.843-3.329-6.257-3.726-9.868-.008-.076-.009-.154-.017-.231A22.94 22.94 0 0 1 6.35 33.9a21.18 21.18 0 0 1 .003-.756 24.56 24.56 0 0 1 .117-2.112c.064-.62.138-1.24.252-1.86 1.097-5.929 3.438-10.164 6.237-13.2l1.235 1.235a.997.997 0 0 0 1.414 0 .999.999 0 0 0 0-1.414l-1.229-1.229a22.398 22.398 0 0 1 2.094-1.683l.533 1.067a1 1 0 1 0 1.789-.894l-.628-1.256c.795-.464 1.59-.872 2.372-1.22l.413 1.24a1 1 0 1 0 1.896-.633l-.45-1.349c1.148-.407 2.236-.7 3.224-.917l.291 1.747a1 1 0 1 0 1.972-.328l-.296-1.777a22.989 22.989 0 0 1 2.31-.22V10.5a1 1 0 1 0 2 0V8.417a26.3 26.3 0 0 1 2.516.374l-.464 1.393a1 1 0 1 0 1.896.633l.522-1.565c.644.176 1.319.385 2.015.634l-.433 1.298a1 1 0 1 0 1.896.633l.395-1.185c.177.079.354.154.532.238.36.171.707.353 1.053.538l-.823 1.645a1 1 0 1 0 1.789.894l.763-1.526c4.174 2.689 7.196 6.517 9.039 11.43l-.002.003.182.513c.272.767.51 1.535.72 2.312l.037.142a31.79 31.79 0 0 1 .531 2.351c.122.66.204 1.32.268 1.979.012.126.029.249.039.376.421 5.166-.906 10.237-3.779 14.198zm6.16-14.912c-.134.031-.28.032-.436-.001-.004-.037-.011-.071-.015-.108a25.76 25.76 0 0 0-.267-1.88l-.003-.018c-.004-.024-.011-.046-.016-.07-.139-.745-.3-1.46-.476-2.156-.021-.081-.046-.162-.067-.243a32.274 32.274 0 0 0-.592-2.001l-.013-.043a.931.931 0 0 1 .31-.143c.378-.088.75.069.994.219.758.467 1.401 1.486 1.68 2.661.464 1.964-.205 3.57-1.099 3.783z"/>
  <path d="M23 33.504c2.452 0 4.61-1.27 5.861-3.184 1.439 3.058 4.542 5.184 8.139 5.184 4.963 0 9-4.037 9-9s-4.037-9-9-9c-3.598 0-6.7 2.126-8.139 5.184A6.997 6.997 0 0 0 23 19.504c-3.859 0-7 3.141-7 7s3.141 7 7 7zm14-14c3.859 0 7 3.141 7 7s-3.141 7-7 7-7-3.141-7-7 3.141-7 7-7zm-14 2c2.757 0 5 2.243 5 5s-2.243 5-5 5-5-2.243-5-5 2.243-5 5-5z"/>
  <circle cx="23" cy="26.504" r="2"/>
  <circle cx="37" cy="26.504" r="3"/>
  <path d="M45 36.504a1 1 0 1 0 0 2c.307 0 .597.06.876.146-2.369 4.31-6.225 7.496-10.927 8.975-4.439 1.396-9.128 1.109-13.352-.757a2.96 2.96 0 0 1 1.402-.364 1 1 0 1 0 0-2c-2.757 0-5 2.243-5 5a1 1 0 1 0 2 0c0-.375.077-.732.204-1.063a20.88 20.88 0 0 0 9.026 2.069c2.116 0 4.244-.324 6.32-.978 5.112-1.608 9.315-5.045 11.944-9.692.32.477.507 1.049.507 1.664a1 1 0 1 0 2 0c0-2.756-2.243-5-5-5z"/>
</svg>