<svg xmlns="http://www.w3.org/2000/svg" viewBox="0 0 455 455" style="enable-background:new 0 0 455 455" xml:space="preserve" width="512" height="512">
  <path style="fill:#185f8d" d="M198.75 393.5v-15c116.07 0 210.5-94.43 210.5-210.5h15c0 60.231-23.457 116.858-66.049 159.451-42.593 42.592-99.22 66.049-159.451 66.049z"/>
  <path style="fill:#c1e8e6" d="M198.75 0c92.78 0 168 75.22 168 168s-75.22 168-168 168-168-75.22-168-168 75.22-168 168-168z"/>
  <path style="fill:#98d9d5" d="M198.75 30c76.212 0 138 61.788 138 138s-61.788 138-138 138-138-61.788-138-138 61.788-138 138-138z"/>
  <path style="fill:#185f8d" d="M198.75 148c11.03 0 20 8.97 20 20s-8.97 20-20 20-20-8.97-20-20 8.97-20 20-20z"/>
  <circle style="fill:#6da8d6" cx="395.5" cy="168" r="28.75"/>
  <path style="fill:#6da8d6" d="M289.779 357.776 289.75 455h-182v-97.224z"/>
  <path style="fill:#185f8d" d="M137.75 387.776V425h122.01l.01-37.224z"/>
</svg>