<svg xmlns="http://www.w3.org/2000/svg">
    <defs>
        <symbol id="happy1" viewBox="0 0 58 58">
            <g>
                <path style="fill:#FDC794;" d="M29.392,54.999c11.246,0.156,17.52-4.381,21.008-9.189c3.603-4.966,4.764-11.283,3.647-17.323
                    C50.004,6.642,29.392,6.827,29.392,6.827S8.781,6.642,4.738,28.488c-1.118,6.04,0.044,12.356,3.647,17.323
                    C11.872,50.618,18.146,55.155,29.392,54.999z" />
                <path style="fill:#F9A671;" d="M4.499,30.125c-0.453-0.429-0.985-0.687-1.559-0.687C1.316,29.438,0,31.419,0,33.862
                    c0,2.443,1.316,4.424,2.939,4.424c0.687,0,1.311-0.37,1.811-0.964C4.297,34.97,4.218,32.538,4.499,30.125z" />
                <path style="fill:#F9A671;" d="M57.823,26.298c-0.563-2.377-2.3-3.999-3.879-3.622c-0.491,0.117-0.898,0.43-1.225,0.855
                    c0.538,1.515,0.994,3.154,1.328,4.957c0.155,0.837,0.261,1.679,0.328,2.522c0.52,0.284,1.072,0.402,1.608,0.274
                    C57.562,30.907,58.386,28.675,57.823,26.298z" />
                <path style="fill:#5E5F62;" d="M13.9,16.999c-0.256,0-0.512-0.098-0.707-0.293l-5-5c-0.391-0.391-0.391-1.023,0-1.414
                    s1.023-0.391,1.414,0l5,5c0.391,0.391,0.391,1.023,0,1.414C14.412,16.901,14.156,16.999,13.9,16.999z" />
                <path style="fill:#5E5F62;" d="M16.901,13.999c-0.367,0-0.72-0.202-0.896-0.553l-3-6c-0.247-0.494-0.047-1.095,0.447-1.342
                    c0.495-0.246,1.094-0.047,1.342,0.447l3,6c0.247,0.494,0.047,1.095-0.447,1.342C17.204,13.965,17.052,13.999,16.901,13.999z" />
                <path style="fill:#5E5F62;" d="M20.9,11.999c-0.419,0-0.809-0.265-0.948-0.684l-2-6c-0.175-0.524,0.108-1.091,0.632-1.265
                    c0.527-0.177,1.091,0.108,1.265,0.632l2,6c0.175,0.524-0.108,1.091-0.632,1.265C21.111,11.982,21.005,11.999,20.9,11.999z" />
                <path style="fill:#5E5F62;" d="M25.899,10.999c-0.48,0-0.904-0.347-0.985-0.836l-1-6c-0.091-0.544,0.277-1.06,0.822-1.15
                    c0.543-0.099,1.061,0.277,1.15,0.822l1,6c0.091,0.544-0.277,1.06-0.822,1.15C26.009,10.995,25.954,10.999,25.899,10.999z" />
                <path style="fill:#5E5F62;" d="M29.9,10.999c-0.553,0-1-0.447-1-1v-6c0-0.553,0.447-1,1-1s1,0.447,1,1v6
                    C30.9,10.552,30.453,10.999,29.9,10.999z" />
                <path style="fill:#5E5F62;" d="M33.9,10.999c-0.104,0-0.211-0.017-0.316-0.052c-0.523-0.174-0.807-0.74-0.632-1.265l2-6
                    c0.175-0.523,0.736-0.809,1.265-0.632c0.523,0.174,0.807,0.74,0.632,1.265l-2,6C34.709,10.734,34.319,10.999,33.9,10.999z" />
                <path style="fill:#5E5F62;" d="M37.9,11.999c-0.104,0-0.211-0.017-0.316-0.052c-0.523-0.174-0.807-0.74-0.632-1.265l2-6
                    c0.175-0.523,0.737-0.809,1.265-0.632c0.523,0.174,0.807,0.74,0.632,1.265l-2,6C38.709,11.734,38.319,11.999,37.9,11.999z" />
                <path style="fill:#5E5F62;" d="M40.899,13.999c-0.15,0-0.303-0.034-0.446-0.105c-0.494-0.247-0.694-0.848-0.447-1.342l3-6
                    c0.248-0.494,0.848-0.693,1.342-0.447c0.494,0.247,0.694,0.848,0.447,1.342l-3,6C41.619,13.797,41.267,13.999,40.899,13.999z" />
                <ellipse style="fill:#FFFFFF;" cx="20" cy="24.499" rx="6" ry="7.5" />
                <ellipse style="fill:#7F5B53;" cx="20" cy="24.499" rx="3" ry="4.5" />
                <ellipse style="fill:#FFFFFF;" cx="38" cy="24.499" rx="6" ry="7.5" />
                <ellipse style="fill:#7F5B53;" cx="38" cy="24.499" rx="3" ry="4.5" />
                <path style="fill:#802D40;" d="M16,38.999v0.031c0,3.821,2.109,7.383,5.543,9.059c2.139,1.044,4.692,1.685,7.442,1.685
                    c2.747,0,5.304-0.64,7.449-1.682c3.45-1.676,5.566-5.257,5.555-9.093v0H16z" />
                <path style="fill:#E64C3C;" d="M38.029,47.085L38,46.999c0-2.462-4.284-3.542-9.004-3.542S20,44.536,20,46.999l-0.014,0.111
                    c0.486,0.367,0.997,0.706,1.557,0.979c2.139,1.044,4.692,1.685,7.442,1.685c2.747,0,5.304-0.64,7.449-1.682
                    C37.009,47.812,37.532,47.463,38.029,47.085z" />
            </g>
        </symbol>
        <symbol id="happy2" viewBox="0 0 58 58">
            <g>
                <path style="fill:#FDC794;" d="M29.392,54.999c11.246,0.156,17.52-4.381,21.008-9.189c3.603-4.966,4.764-11.283,3.647-17.323
                    C50.004,6.642,29.392,6.827,29.392,6.827S8.781,6.642,4.738,28.488c-1.118,6.04,0.044,12.356,3.647,17.323
                    C11.872,50.618,18.146,55.155,29.392,54.999z" />
                <path style="fill:#F9A671;" d="M4.499,30.125c-0.453-0.429-0.985-0.687-1.559-0.687C1.316,29.438,0,31.419,0,33.862
                    c0,2.443,1.316,4.424,2.939,4.424c0.687,0,1.311-0.37,1.811-0.964C4.297,34.97,4.218,32.538,4.499,30.125z" />
                <path style="fill:#F9A671;" d="M57.823,26.298c-0.563-2.377-2.3-3.999-3.879-3.622c-0.491,0.117-0.898,0.43-1.225,0.855
                    c0.538,1.515,0.994,3.154,1.328,4.957c0.155,0.837,0.261,1.679,0.328,2.522c0.52,0.284,1.072,0.402,1.608,0.274
                    C57.562,30.908,58.386,28.675,57.823,26.298z" />
                <path style="fill:#5E5F62;" d="M13.9,16.998c-0.256,0-0.512-0.098-0.707-0.293l-5-5c-0.391-0.391-0.391-1.023,0-1.414
                    s1.023-0.391,1.414,0l5,5c0.391,0.391,0.391,1.023,0,1.414C14.412,16.901,14.156,16.998,13.9,16.998z" />
                <path style="fill:#5E5F62;" d="M16.901,13.998c-0.367,0-0.72-0.202-0.896-0.553l-3-6c-0.247-0.494-0.047-1.095,0.447-1.342
                    c0.495-0.245,1.094-0.047,1.342,0.447l3,6c0.247,0.494,0.047,1.095-0.447,1.342C17.204,13.964,17.052,13.998,16.901,13.998z" />
                <path style="fill:#5E5F62;" d="M20.9,11.998c-0.419,0-0.809-0.265-0.948-0.684l-2-6c-0.175-0.524,0.108-1.091,0.632-1.265
                    c0.527-0.176,1.091,0.108,1.265,0.632l2,6c0.175,0.524-0.108,1.091-0.632,1.265C21.111,11.982,21.005,11.998,20.9,11.998z" />
                <path style="fill:#5E5F62;" d="M25.899,10.998c-0.48,0-0.904-0.347-0.985-0.836l-1-6c-0.091-0.544,0.277-1.06,0.822-1.15
                    c0.543-0.098,1.061,0.277,1.15,0.822l1,6c0.091,0.544-0.277,1.06-0.822,1.15C26.009,10.995,25.954,10.998,25.899,10.998z" />
                <path style="fill:#5E5F62;" d="M29.9,10.998c-0.553,0-1-0.447-1-1v-6c0-0.553,0.447-1,1-1s1,0.447,1,1v6
                    C30.9,10.551,30.453,10.998,29.9,10.998z" />
                <path style="fill:#5E5F62;" d="M33.9,10.998c-0.104,0-0.211-0.017-0.316-0.052c-0.523-0.174-0.807-0.74-0.632-1.265l2-6
                    c0.175-0.523,0.736-0.809,1.265-0.632c0.523,0.174,0.807,0.74,0.632,1.265l-2,6C34.709,10.734,34.319,10.998,33.9,10.998z" />
                <path style="fill:#5E5F62;" d="M37.9,11.998c-0.104,0-0.211-0.017-0.316-0.052c-0.523-0.174-0.807-0.74-0.632-1.265l2-6
                    c0.175-0.523,0.737-0.808,1.265-0.632c0.523,0.174,0.807,0.74,0.632,1.265l-2,6C38.709,11.734,38.319,11.998,37.9,11.998z" />
                <path style="fill:#5E5F62;" d="M40.899,13.998c-0.15,0-0.303-0.034-0.446-0.105c-0.494-0.247-0.694-0.848-0.447-1.342l3-6
                    c0.248-0.494,0.848-0.692,1.342-0.447c0.494,0.247,0.694,0.848,0.447,1.342l-3,6C41.619,13.796,41.267,13.998,40.899,13.998z" />
                <circle style="fill:#FFFFFF;" cx="22" cy="26.003" r="6" />
                <circle style="fill:#FFFFFF;" cx="36" cy="26.003" r="8" />
                <circle style="fill:#7F5B53;" cx="22" cy="26.003" r="2" />
                <circle style="fill:#7F5B53;" cx="36" cy="26.003" r="3" />
                <path style="fill:#F9A671;" d="M28.229,50.009c-3.336,0-6.646-0.804-9.691-2.392c-0.49-0.255-0.68-0.859-0.425-1.349
                    c0.255-0.49,0.856-0.682,1.349-0.425c4.505,2.348,9.648,2.802,14.487,1.28c4.839-1.522,8.796-4.842,11.144-9.346
                    c0.255-0.491,0.857-0.684,1.349-0.425c0.49,0.255,0.68,0.859,0.425,1.349c-2.595,4.979-6.969,8.646-12.316,10.329
                    C32.474,49.685,30.346,50.009,28.229,50.009z" />
                <path style="fill:#F9A671;" d="M18,50.003c-0.553,0-1-0.447-1-1c0-2.757,2.243-5,5-5c0.553,0,1,0.447,1,1s-0.447,1-1,1
                    c-1.654,0-3,1.346-3,3C19,49.556,18.553,50.003,18,50.003z" />
                <path style="fill:#F9A671;" d="M48,42.003c-0.553,0-1-0.447-1-1c0-1.654-1.346-3-3-3c-0.553,0-1-0.447-1-1s0.447-1,1-1
                    c2.757,0,5,2.243,5,5C49,41.556,48.553,42.003,48,42.003z" />
            </g>
        </symbol>


        <symbol id="happy3" viewBox="0 0 58 58">
            <g>
                <path style="fill:#6E5847;" d="M29,0C14.975,0,3.5,11.475,3.5,25.5V50c0,2.2,1.8,4,4,4h6.777c4.16,2.021,9.237,3,14.723,3
                c3.564,0,6.949-0.421,10.028-1.264l-4.419-4.419c1.467-0.595,2.789-1.472,3.891-2.573c1.065-1.066,2.039-2.223,2.632-3.631
                l5.357,5.357c0.956,0.956,1.319,2.286,1.1,3.531H50.5c2.2,0,4-1.8,4-4V25.5C54.5,11.475,43.025,0,29,0z" />
                <path style="fill:#FDC794;" d="M29.5,11h-1C17.26,11.55,7.407,19.401,4.426,29.901l-0.057-0.007
                c-0.335,1.251-0.566,2.544-0.708,3.863c-0.02,0.179-0.037,0.359-0.054,0.539c-0.021,0.245-0.044,0.49-0.058,0.738
                C3.519,35.518,3.5,36.007,3.5,36.5C3.5,50.583,14.917,57,29,57c3.564,0,6.956-0.413,10.037-1.255l-4.428-4.428
                c1.467-0.595,2.789-1.472,3.891-2.573c1.065-1.066,2.039-2.223,2.632-3.631l5.357,5.357c0.386,0.386,0.674,0.833,0.869,1.31
                C51.777,48.413,54.5,43.371,54.5,36.5C54.5,22.842,42.995,11.661,29.5,11z" />
                <g>
                    <path style="fill:#FB7B76;" d="M38.5,48.744c-1.102,1.102-2.424,1.978-3.891,2.573l5.516,5.516c1.556,1.556,4.101,1.556,5.657,0
                    l0.707-0.707c1.556-1.556,1.556-4.101,0-5.657l-5.357-5.357C40.539,46.522,39.565,47.679,38.5,48.744z" />
                </g>
                <path style="fill:#E64C3C;" d="M42.954,53.591c-0.256,0-0.512-0.098-0.707-0.293l-0.111-0.111
                c-1.813-1.814-2.986-2.885-3.491-3.188c-0.271,0.025-0.539-0.088-0.743-0.292c-0.39-0.392-0.39-1.024,0.001-1.415
                c0.951-0.95,2.059-0.112,5.648,3.481l0.11,0.11c0.391,0.391,0.391,1.023,0,1.414C43.465,53.493,43.209,53.591,42.954,53.591z
                 M39.312,49.711C39.312,49.711,39.312,49.711,39.312,49.711C39.312,49.711,39.312,49.711,39.312,49.711z M39.315,49.708
                c0,0-0.001,0.001-0.002,0.001C39.314,49.709,39.315,49.708,39.315,49.708z" />
                <path style="fill:#F9A671;" d="M30.609,53c-6.617,0-12-5.383-12-12c0-0.553,0.448-1,1-1s1,0.447,1,1c0,5.514,4.486,10,10,10
                s10-4.486,10-10c0-0.553,0.448-1,1-1s1,0.447,1,1C42.609,47.617,37.226,53,30.609,53z" />
                <path style="fill:#FFFFFF;" d="M36.109,20c-1.791,0-3.451,0.489-4.821,1.324c-1.343,0.819-3.015,0.819-4.358,0
                C25.56,20.489,23.9,20,22.109,20c-4.694,0-8.5,3.358-8.5,7.5s3.806,7.5,8.5,7.5c1.791,0,3.451-0.489,4.821-1.324
                c1.343-0.819,3.015-0.819,4.358,0C32.658,34.511,34.318,35,36.109,35c4.694,0,8.5-3.358,8.5-7.5S40.803,20,36.109,20z" />
                <circle style="fill:#6E5847;" cx="23.609" cy="29" r="2" />
                <circle style="fill:#6E5847;" cx="35.609" cy="28" r="3" />
            </g>
        </symbol>
        <symbol id="happy3" viewBox="0 0 58 58">
            <g>
                <path style="fill:#FBD971;" d="M29.516,38.834L24,33.317c0.464-0.188,0.906-0.414,1.339-0.656l4.494-4.494
            c0.211-0.378,0.521-0.744,0.69-1.146l5.357,5.449c0.591,0.591,0.955,1.325,1.097,2.093C40.091,30.901,42,26.184,42,21
            C42,9.402,32.598,0,21,0S0,9.402,0,21c0,11.598,9.402,21,21,21c3.495,0,6.786-0.861,9.685-2.372
            C30.262,39.436,29.862,39.18,29.516,38.834z" />
                <circle style="fill:#FFFFFF;" cx="12" cy="15" r="6" />
                <circle style="fill:#FFFFFF;" cx="30" cy="15" r="6" />
                <g>
                    <path style="fill:#FB7B76;" d="M27.891,30.744c-1.102,1.102-2.424,1.978-3.891,2.573l5.516,5.516c1.556,1.556,4.101,1.556,5.657,0
                l0.707-0.707c1.556-1.556,1.556-4.101,0-5.657l-5.357-5.357C29.93,28.522,28.956,29.679,27.891,30.744z" />
                </g>
                <circle style="fill:#AF8066;" cx="12" cy="15" r="3" />
                <circle style="fill:#AF8066;" cx="30" cy="15" r="3" />
                <path style="fill:#E64C3C;" d="M30.179,31.438c-0.669-0.505-1.277-0.932-1.822-1.185c-0.155,0.164-0.306,0.331-0.466,0.491
            c-0.371,0.371-0.775,0.706-1.194,1.024c0.221,0.216,0.518,0.305,0.801,0.282c0.737,0.341,2.994,2.102,4.139,3.247
            c0.195,0.195,0.451,0.293,0.707,0.293s0.512-0.098,0.707-0.293c0.391-0.391,0.391-1.023,0-1.414
            C32.386,33.218,31.205,32.212,30.179,31.438z" />
                <path style="fill:#F0C419;" d="M18.387,34.993c-1.981,0-3.953-0.38-5.771-1.138c-0.51-0.212-0.751-0.798-0.538-1.308
            c0.212-0.509,0.797-0.751,1.308-0.538c3.052,1.271,6.606,1.313,9.753,0.116c3.217-1.224,5.682-3.561,6.939-6.578
            c0.211-0.509,0.796-0.753,1.308-0.538c0.51,0.212,0.75,0.798,0.538,1.308c-1.47,3.529-4.338,6.257-8.073,7.678
            C22.1,34.661,20.239,34.993,18.387,34.993z" />
            </g>
        </symbol>

        <symbol id="sad1" viewBox="0 0 295.996 295.996">
            <g>
                <path style="fill:#FFCE00;" d="M270.996,123.998c0-11.334-1.363-22.348-3.907-32.9c-7.269-15.152-17.35-28.708-29.558-39.996
		c-22.391-13.376-48.766-20.666-76.771-19.645C83.492,34.273,23.139,99.196,25.955,176.463c0.412,11.304,2.17,22.239,5.087,32.673
		c6.303,12.01,14.397,22.938,23.934,32.42c21.892,14.189,47.99,22.44,76.022,22.44C208.316,263.996,270.996,201.316,270.996,123.998
		z M197.497,98.998c8.836,0,16,7.164,16,16s-7.164,16-16,16s-16-7.164-16-16S188.661,98.998,197.497,98.998z M98.497,98.998
		c8.836,0,16,7.164,16,16s-7.164,16-16,16s-16-7.164-16-16S89.661,98.998,98.497,98.998z M98.498,247.898
		c-22.475,0-40.76-18.285-40.76-40.76c0-9.527,5.948-21.439,18.185-36.416c8.415-10.301,16.723-18.2,17.072-18.532l5.503-5.216
		l5.504,5.217c0.349,0.331,8.655,8.231,17.07,18.531c4.315,5.282,7.832,10.175,10.598,14.724
		c11.514-2.112,23.482-2.061,35.242,0.397c21.262,4.447,40.354,16.391,53.756,33.631l-12.631,9.82
		c-11.078-14.249-26.847-24.118-44.4-27.789c-8.404-1.758-16.936-2.017-25.244-0.928c0.565,2.302,0.863,4.491,0.863,6.561
		C139.256,229.613,120.972,247.898,98.498,247.898z" />
                <path style="fill:#FFB100;" d="M267.089,91.098c2.544,10.553,3.907,21.566,3.907,32.9c0,77.318-62.68,139.998-139.998,139.998
		c-28.032,0-54.131-8.251-76.022-22.44c23.88,23.744,56.767,38.44,93.022,38.44c72.784,0,131.998-59.214,131.998-131.998
		C279.996,127.636,275.358,108.337,267.089,91.098z" />
                <path style="fill:#FFE454;" d="M160.76,31.457c28.006-1.021,54.381,6.269,76.771,19.645C213.985,29.328,182.521,16,147.998,16
		C75.214,16,16,75.214,16,147.998c0,22.049,5.442,42.849,15.042,61.138c-2.917-10.434-4.675-21.369-5.087-32.673
		C23.139,99.196,83.492,34.273,160.76,31.457z" />
                <path d="M147.998,0C66.392,0,0,66.392,0,147.998s66.392,147.998,147.998,147.998s147.998-66.392,147.998-147.998
		S229.605,0,147.998,0z M147.998,279.996c-36.256,0-69.143-14.696-93.022-38.44c-9.536-9.482-17.631-20.41-23.934-32.42
		C21.442,190.847,16,170.047,16,147.998C16,75.214,75.214,16,147.998,16c34.523,0,65.987,13.328,89.533,35.102
		c12.208,11.288,22.289,24.844,29.558,39.996c8.27,17.239,12.907,36.538,12.907,56.9
		C279.996,220.782,220.782,279.996,147.998,279.996z" />
                <circle cx="98.497" cy="114.998" r="16" />
                <circle cx="197.497" cy="114.998" r="16" />
                <path style="fill:#28E0FF;" d="M98.501,169.292c-11.662,12.173-24.763,29.174-24.763,37.847c0,13.652,11.107,24.76,24.76,24.76
		c13.651,0,24.758-11.107,24.758-24.76C123.256,198.445,110.16,181.453,98.501,169.292z" />
                <path d="M138.393,200.578c8.309-1.089,16.84-0.83,25.244,0.928c17.554,3.671,33.322,13.54,44.4,27.789l12.631-9.82
		c-13.402-17.24-32.494-29.184-53.756-33.631c-11.76-2.458-23.729-2.51-35.242-0.397c-2.766-4.549-6.282-9.441-10.598-14.724
		c-8.415-10.3-16.722-18.2-17.07-18.531l-5.504-5.217l-5.503,5.216c-0.35,0.332-8.657,8.231-17.072,18.532
		c-12.236,14.977-18.185,26.889-18.185,36.416c0,22.475,18.285,40.76,40.76,40.76c22.474,0,40.758-18.285,40.758-40.76
		C139.256,205.069,138.957,202.88,138.393,200.578z M98.498,231.898c-13.652,0-24.76-11.107-24.76-24.76
		c0-8.673,13.101-25.674,24.763-37.847c11.659,12.161,24.755,29.153,24.755,37.847C123.256,220.791,112.149,231.898,98.498,231.898z
		" />
            </g>
        </symbol>
        <symbol id="sad2" viewBox="0 0 57 57">
            <g>
                <path style="fill:#6E5847;" d="M28.5,0C14.475,0,3,11.475,3,25.5V50c0,2.2,1.8,4,4,4h6.777c4.16,2.021,9.237,3,14.723,3
            s10.563-0.979,14.723-3H50c2.2,0,4-1.8,4-4V25.5C54,11.475,42.525,0,28.5,0z" />
                <path style="fill:#FDC794;" d="M3.869,29.894C3.305,32.001,3,34.215,3,36.5C3,50.583,14.417,57,28.5,57S54,50.583,54,36.5
            C54,22.842,42.495,11.661,29,11h-1C14.505,11.661,3,22.842,3,36.5C3,50.583,14.417,57,28.5,57S54,50.583,54,36.5" />
                <path style="fill:#0096E6;" d="M13.083,35.824L13.083,35.824c-1.127,0.019-2.065-0.889-2.083-2.016v0
            c-0.019-1.127,1.967-4.148,1.982-4.132h0c0,0,2.098,2.938,2.117,4.065v0C15.117,34.868,14.21,35.805,13.083,35.824z" />
                <path style="fill:#0096E6;" d="M44.083,35.824L44.083,35.824c-1.127,0.019-2.065-0.889-2.083-2.016v0
            c-0.019-1.127,1.967-4.148,1.982-4.132h0c0,0,2.098,2.938,2.117,4.065v0C46.117,34.868,45.21,35.805,44.083,35.824z" />
                <path style="fill:#0096E6;" d="M48.083,43.824L48.083,43.824c-1.127,0.019-2.065-0.889-2.083-2.016v0
            c-0.019-1.127,1.967-4.148,1.982-4.132h0c0,0,2.098,2.938,2.117,4.065v0C50.117,42.868,49.21,43.805,48.083,43.824z" />
                <path style="fill:#0096E6;" d="M8.984,43.824L8.984,43.824c-1.127,0.019-2.065-0.889-2.083-2.016v0
            c-0.019-1.127,1.967-4.148,1.982-4.132h0c0,0,2.098,2.938,2.117,4.065v0C11.018,42.868,10.111,43.805,8.984,43.824z" />
                <path style="fill:#F9A671;" d="M22.485,26.676c-0.256,0-0.512-0.098-0.707-0.293c-0.945-0.945-2.201-1.467-3.535-1.467
            c-1.335,0-2.591,0.521-3.536,1.467c-0.391,0.391-1.023,0.391-1.414,0s-0.391-1.023,0-1.414c1.322-1.323,3.081-2.053,4.95-2.053
            c1.868,0,3.627,0.729,4.949,2.053c0.391,0.391,0.391,1.023,0,1.414C22.997,26.578,22.741,26.676,22.485,26.676z" />
                <path style="fill:#F9A671;" d="M43,26.676c-0.256,0-0.512-0.098-0.707-0.293c-0.945-0.945-2.201-1.467-3.536-1.467
            c-1.334,0-2.59,0.521-3.535,1.467c-0.391,0.391-1.023,0.391-1.414,0s-0.391-1.023,0-1.414c1.322-1.323,3.081-2.053,4.949-2.053
            c1.869,0,3.628,0.729,4.95,2.053c0.391,0.391,0.391,1.023,0,1.414C43.512,26.578,43.256,26.676,43,26.676z" />
                <path style="fill:#802D40;" d="M18,48.676c0-6.075,4.925-9,11-9s11,2.925,11,9s-4.925,1-11,1S18,54.751,18,48.676z" />
                <path style="fill:#E64C3C;" d="M29,49.683c1.798,0,3.494,0.445,4.993,0.913c-0.04-2.727-2.256-4.927-4.993-4.927
            s-4.953,2.2-4.993,4.927C25.506,50.127,27.202,49.683,29,49.683z" />
            </g>

        </symbol>
        <symbol id="sad3" viewBox="0 0 387.04 387.04">
            <g>
                <path style="fill:#F9C5EE;" d="M349.71,198.44c12.29,3.5,21.33,14.81,21.33,28.21c0,13.39-9.04,24.71-21.33,28.2V198.44z" />
                <path style="fill:#F9C5EE;" d="M37.32,198.44v56.41C25.03,251.36,16,240.04,16,226.65C16,213.25,25.03,201.94,37.32,198.44z" />
                <path style="fill:#FCD9EB;" d="M333.71,175.33v83.43c0,35.13-12.86,59.43-39.32,74.29c-22.6,12.69-55.6,18.86-100.87,18.86
            c-22.64,0-42.21-1.54-58.94-4.67c-16.74-3.13-30.64-7.85-41.94-14.19c-26.46-14.86-39.32-39.16-39.32-74.29v-83.43
            c0-63.31,42.19-116.94,99.92-134.29c43.98,0.56,67.41,32.31,67.41,55.3c0,17.6-14.33,31.93-31.94,31.93
            c-13.2,0-23.94-10.74-23.94-23.95c0-9.68,7.87-17.56,17.55-17.56c4.42,0,8-3.58,8-8c0-4.41-3.58-8-8-8
            c-18.5,0-33.55,15.06-33.55,33.56c0,22.03,17.92,39.95,39.94,39.95c26.43,0,47.94-21.5,47.94-47.93c0-16.61-8.35-34.47-22.32-47.79
            c-5.59-5.33-11.95-9.81-18.88-13.39C271.86,36.2,333.71,98.67,333.71,175.33z M307.74,200.11c0-4.42-3.58-8-8-8
            c-8.39,0-15.22-6.83-15.22-15.22c0-4.42-3.58-8-8-8c-4.42,0-8,3.58-8,8c0,17.21,14.01,31.22,31.22,31.22
            C304.16,208.11,307.74,204.52,307.74,200.11z M289.6,233.17c0-8.49-6.89-15.37-15.37-15.37c-8.49,0-15.37,6.88-15.37,15.37
            s6.88,15.37,15.37,15.37C282.71,248.54,289.6,241.66,289.6,233.17z M235.77,305.45c3.13-3.12,3.13-8.19,0-11.31
            c-23.3-23.3-61.21-23.3-84.51,0c-3.12,3.12-3.12,8.19,0,11.31c3.13,3.13,8.19,3.13,11.32,0c17.06-17.06,44.82-17.06,61.88,0
            c1.56,1.56,3.61,2.34,5.65,2.34C232.16,307.79,234.21,307.01,235.77,305.45z M128.17,233.17c0-8.49-6.88-15.37-15.36-15.37
            c-8.49,0-15.37,6.88-15.37,15.37s6.88,15.37,15.37,15.37C121.29,248.54,128.17,241.66,128.17,233.17z M118.51,176.89
            c0-4.42-3.58-8-8-8c-4.42,0-8,3.58-8,8c0,8.39-6.83,15.22-15.22,15.22c-4.42,0-8,3.58-8,8c0,4.41,3.58,8,8,8
            C104.51,208.11,118.51,194.1,118.51,176.89z" />
                <path style="fill:#333333;" d="M349.71,182.05c21.19,3.79,37.33,22.34,37.33,44.6c0,22.45-16.42,41.13-37.87,44.7
            c-3.02,34.41-18.77,59.83-46.95,75.65c-25.05,14.07-60.61,20.91-108.7,20.91S109.87,361.07,84.81,347
            c-28.18-15.82-43.92-41.24-46.94-75.65C16.41,267.78,0,249.1,0,226.65c0-22.26,16.13-40.81,37.32-44.6v-6.72
            c0-86.13,70.07-156.2,156.2-156.2c86.12,0,156.19,70.07,156.19,156.2V182.05z M371.04,226.65c0-13.4-9.04-24.71-21.33-28.21v56.41
            C362,251.36,371.04,240.04,371.04,226.65z M333.71,258.76v-83.43c0-76.66-61.85-139.13-138.26-140.17
            c6.93,3.58,13.29,8.06,18.88,13.39c13.97,13.32,22.32,31.18,22.32,47.79c0,26.43-21.51,47.93-47.94,47.93
            c-22.02,0-39.94-17.92-39.94-39.95c0-18.5,15.05-33.56,33.55-33.56c4.42,0,8,3.59,8,8c0,4.42-3.58,8-8,8
            c-9.68,0-17.55,7.88-17.55,17.56c0,13.21,10.74,23.95,23.94,23.95c17.61,0,31.94-14.33,31.94-31.93c0-22.99-23.43-54.74-67.41-55.3
            c-57.73,17.35-99.92,70.98-99.92,134.29v83.43c0,35.13,12.86,59.43,39.32,74.29c11.3,6.34,25.2,11.06,41.94,14.19
            c16.73,3.13,36.3,4.67,58.94,4.67c45.27,0,78.27-6.17,100.87-18.86C320.85,318.19,333.71,293.89,333.71,258.76z M37.32,254.85
            v-56.41C25.03,201.94,16,213.25,16,226.65C16,240.04,25.03,251.36,37.32,254.85z" />
                <path style="fill:#CE91C3;" d="M299.74,192.11c4.42,0,8,3.58,8,8c0,4.41-3.58,8-8,8c-17.21,0-31.22-14.01-31.22-31.22
            c0-4.42,3.58-8,8-8c4.42,0,8,3.58,8,8C284.52,185.28,291.35,192.11,299.74,192.11z" />
                <path style="fill:#0677CC;" d="M274.23,217.8c8.48,0,15.37,6.88,15.37,15.37s-6.89,15.37-15.37,15.37
            c-8.49,0-15.37-6.88-15.37-15.37S265.74,217.8,274.23,217.8z" />
                <path style="fill:#333333;" d="M235.77,294.14c3.13,3.12,3.13,8.19,0,11.31c-1.56,1.56-3.61,2.34-5.66,2.34
            c-2.04,0-4.09-0.78-5.65-2.34c-17.06-17.06-44.82-17.06-61.88,0c-3.13,3.13-8.19,3.13-11.32,0c-3.12-3.12-3.12-8.19,0-11.31
            C174.56,270.84,212.47,270.84,235.77,294.14z" />
                <path style="fill:#0677CC;" d="M112.81,217.8c8.48,0,15.36,6.88,15.36,15.37s-6.88,15.37-15.36,15.37
            c-8.49,0-15.37-6.88-15.37-15.37S104.32,217.8,112.81,217.8z" />
                <path style="fill:#CE91C3;" d="M110.51,168.89c4.42,0,8,3.58,8,8c0,17.21-14,31.22-31.22,31.22c-4.42,0-8-3.59-8-8
            c0-4.42,3.58-8,8-8c8.39,0,15.22-6.83,15.22-15.22C102.51,172.47,106.09,168.89,110.51,168.89z" />
            </g>


        </symbol>
        <symbol id="sad4" viewBox="0 0 512.003 512.003">
            <g>
                <circle style="fill:#FDDF6D;" cx="256.001" cy="256.001" r="256.001" />
                <path style="fill:#FCC56B;" d="M310.859,474.208c-141.385,0-256-114.615-256-256c0-75.537,32.722-143.422,84.757-190.281
	C56.738,70.303,0,156.525,0,256c0,141.385,114.615,256,256,256c65.849,0,125.883-24.87,171.243-65.718
	C392.325,464.135,352.77,474.208,310.859,474.208z" />
                <g>
                    <circle style="fill:#7F184C;" cx="219.398" cy="211.927" r="31.243" />
                    <circle style="fill:#7F184C;" cx="395.305" cy="211.927" r="31.243" />
                    <path style="fill:#7F184C;" d="M369.694,430.737c-3.656,0.001-7.203-1.927-9.108-5.349c-9.763-17.527-28.276-28.415-48.313-28.415
		c-19.528,0-38.25,10.998-48.865,28.702c-2.958,4.932-9.355,6.533-14.287,3.577c-4.934-2.958-6.535-9.354-3.577-14.287
		c14.357-23.945,39.926-38.821,66.73-38.821c27.589,0,53.073,14.986,66.511,39.108c2.799,5.024,0.994,11.367-4.03,14.165
		C373.149,430.313,371.409,430.737,369.694,430.737z" />
                </g>
                <path style="fill:#3FA9F5;" d="M249.003,345.027c0,17.825-14.45,32.275-32.275,32.275s-32.275-14.45-32.275-32.275
	c0-17.825,32.275-64.31,32.275-64.31S249.003,327.203,249.003,345.027z" />
                <ellipse transform="matrix(0.2723 -0.9622 0.9622 0.2723 156.5499 349.394)" style="fill:#FCEB88;" cx="309.272" cy="71.196" rx="29.854" ry="53.46" />
            </g>


        </symbol>


        <symbol id="sad5" viewBox="0 0 512.003 512.003">
            <g>
                <circle style="fill:#FDDF6D;" cx="256.001" cy="256.001" r="256.001" />
                <path style="fill:#FCC56B;" d="M310.859,474.208c-141.385,0-256-114.615-256-256c0-75.537,32.722-143.422,84.757-190.281
	C56.738,70.303,0,156.525,0,256c0,141.385,114.615,256,256,256c65.849,0,125.883-24.87,171.243-65.718
	C392.325,464.135,352.77,474.208,310.859,474.208z" />
                <g>
                    <path style="fill:#3FA9F5;" d="M214.76,207.477c-25.664,1.047-39.146,21.868-40.262,23.658v267.611
		C200.099,507.338,227.505,512,256,512c1.037,0,2.069-0.028,3.105-0.039c0-93.609,0-187.217,0-280.827
		C249.526,215.822,232.573,206.749,214.76,207.477z" />
                    <path style="fill:#3FA9F5;" d="M392.434,207.477c-25.664,1.047-39.146,21.868-40.262,23.658v262.168
		c31.909-12.944,60.621-32.124,84.606-56.046c0-68.706,0-137.414,0-206.122C427.2,215.822,410.247,206.749,392.434,207.477z" />
                </g>
                <g>
                    <path style="fill:#7F184C;" d="M450.563,250.716c-3.656,0-7.203-1.927-9.108-5.349c-9.456-16.976-27.387-27.519-46.793-27.519
		c-18.913,0-37.051,10.655-47.333,27.807c-2.956,4.932-9.355,6.533-14.287,3.577c-4.934-2.958-6.535-9.354-3.577-14.287
		c14.026-23.394,39.008-37.927,65.199-37.927c26.957,0,51.858,14.643,64.989,38.214c2.799,5.024,0.996,11.367-4.03,14.165
		C454.016,250.293,452.277,250.716,450.563,250.716z" />
                    <path style="fill:#7F184C;" d="M269.71,250.716c-3.656,0.001-7.203-1.927-9.108-5.349c-9.455-16.976-27.386-27.519-46.793-27.519
		c-18.913,0-37.05,10.655-47.333,27.807c-2.958,4.932-9.355,6.533-14.287,3.577c-4.934-2.958-6.535-9.354-3.577-14.287
		c14.026-23.394,39.008-37.927,65.199-37.927c26.957,0,51.86,14.643,64.989,38.214c2.799,5.024,0.994,11.367-4.03,14.165
		C273.163,250.293,271.424,250.716,269.71,250.716z" />
                    <circle style="fill:#7F184C;" cx="305.644" cy="375.962" r="46.533" />
                </g>
                <ellipse transform="matrix(0.2723 -0.9622 0.9622 0.2723 149.2874 344.5109)" style="fill:#FCEB88;" cx="302.412" cy="73.556" rx="29.854" ry="53.46" />


            </g>


        </symbol>


        <symbol id="sad6" viewBox="0 0 295.996 295.996">
            <g>
                <path style="fill:#FFCE00;" d="M270.996,123.998c0-11.334-1.363-22.348-3.907-32.9c-7.269-15.152-17.35-28.708-29.558-39.996
                    c-22.391-13.376-48.766-20.666-76.772-19.645c-37.566,1.369-71.131,17.422-95.386,42.433l45.716-19.798l6.359,14.682L66.777,90.718
                    l-5.418-12.51c-23.196,26.016-36.774,60.674-35.404,98.255c0.413,11.304,2.17,22.239,5.087,32.673
                    c6.303,12.01,14.397,22.938,23.934,32.42c21.892,14.189,47.99,22.44,76.023,22.44C208.316,263.996,270.996,201.316,270.996,123.998
                    z M184.904,54.092l50.672,21.944l-6.359,14.682l-50.672-21.944L184.904,54.092z M213.497,115.998c0,8.836-7.164,16-16,16
                    s-16-7.164-16-16s7.164-16,16-16S213.497,107.162,213.497,115.998z M98.497,99.998c8.836,0,16,7.164,16,16s-7.164,16-16,16
                    s-16-7.164-16-16S89.661,99.998,98.497,99.998z M78.384,209.508l-14.648-6.438c13.872-31.566,45.052-53.112,79.435-54.892
                    c34.606-1.798,67.991,16.555,85.014,46.744c1.486,2.636,2.857,5.377,4.075,8.148l-14.648,6.436
                    c-1.005-2.286-2.136-4.548-3.363-6.724c-14.066-24.946-41.666-40.108-70.25-38.626C115.599,165.627,89.845,183.428,78.384,209.508z
                    " />
                <path style="fill:#FFB100;" d="M267.089,91.098c2.544,10.553,3.907,21.566,3.907,32.9c0,77.318-62.68,139.998-139.998,139.998
                    c-28.032,0-54.131-8.251-76.023-22.44c23.88,23.744,56.766,38.44,93.023,38.44c72.784,0,131.998-59.214,131.998-131.998
                    C279.996,127.636,275.358,108.337,267.089,91.098z" />
                <path style="fill:#FFE454;" d="M61.359,78.208l-0.941-2.172l4.956-2.146c24.255-25.011,57.819-41.063,95.386-42.433
                    c28.006-1.021,54.381,6.268,76.772,19.645C213.985,29.328,182.521,16,147.998,16C75.214,16,16,75.214,16,147.998
                    c0,22.049,5.442,42.849,15.042,61.138c-2.917-10.434-4.674-21.369-5.087-32.673C24.585,138.882,38.163,104.224,61.359,78.208z" />
                <path d="M147.998,0C66.392,0,0,66.392,0,147.998s66.392,147.998,147.998,147.998s147.998-66.392,147.998-147.998
                    S229.605,0,147.998,0z M147.998,279.996c-36.257,0-69.143-14.696-93.023-38.44c-9.536-9.482-17.631-20.41-23.934-32.42
                    C21.442,190.847,16,170.047,16,147.998C16,75.214,75.214,16,147.998,16c34.523,0,65.987,13.328,89.533,35.102
                    c12.208,11.288,22.289,24.844,29.558,39.996c8.27,17.239,12.907,36.538,12.907,56.9
                    C279.996,220.782,220.782,279.996,147.998,279.996z M92.132,276.394c0.24,0.105,0.48,0.212,0.722,0.316
                    C92.612,276.605,92.372,276.499,92.132,276.394z" />
                <circle cx="98.497" cy="115.998" r="16" />
                <circle cx="197.497" cy="115.998" r="16" />

                <rect x="179.443" y="64.402" transform="matrix(-0.9176 -0.3974 0.3974 -0.9176 368.2772 221.1255)" width="55.218" height="15.999" />
                <polygon points="61.359,78.208 66.777,90.718 117.449,68.774 111.09,54.092 65.374,73.89 60.418,76.036 	" />
                <path d="M214.247,202.783c1.228,2.176,2.358,4.438,3.363,6.724l14.648-6.436c-1.218-2.771-2.589-5.513-4.075-8.148
                    c-17.022-30.189-50.407-48.542-85.014-46.744c-34.383,1.779-65.563,23.325-79.435,54.892l14.648,6.438
                    c11.461-26.08,37.215-43.881,65.613-45.351C172.581,162.675,200.181,177.837,214.247,202.783z" />
            </g>


        </symbol>


        <symbol id="sad7" viewBox="0 0 47 47">
            <g>
                <path style="fill:#FFD581;" d="M44,19.662L44,19.662c-1.74-9.843-10.158-17-20.5-17S4.74,9.819,3,19.662l0,0
                    c-1.663,0.661-3,2.602-3,4.5c0,1.978,1.284,3.639,3.058,4.242C5.21,37.715,13.536,44.662,23.5,44.662
                    c9.965,0,18.29-6.948,20.442-16.258l0,0.001C45.716,27.801,47,26.14,47,24.162C47,22.264,45.663,20.323,44,19.662z" />
                <path style="fill:#CB8252;" d="M31,39.663c-0.553,0-1-0.447-1-1c0-3.309-2.691-6-6-6s-6,2.691-6,6c0,0.553-0.447,1-1,1
                    s-1-0.447-1-1c0-4.411,3.589-8,8-8s8,3.589,8,8C32,39.216,31.553,39.663,31,39.663z" />
                <circle style="fill:#414141;" cx="17" cy="25.662" r="2" />
                <circle style="fill:#414141;" cx="31" cy="25.662" r="2" />
                <path style="fill:#414141;" d="M44,19.662l0,0.001C42.26,9.821,33.684,2.338,23.342,2.338S4.74,9.819,3,19.662
                    c0,0,16.906,4.33,28.242-4.726c0.555-0.444,1.362-0.34,1.758,0.25C35.049,18.238,38.828,21.942,44,19.662z" />
            </g>
        </symbol>


    </defs>
</svg>