<?xml version="1.0" encoding="iso-8859-1"?>
<!-- Generator: Adobe Illustrator 19.0.0, SVG Export Plug-In . SVG Version: 6.00 Build 0)  -->
<svg version="1.1" id="Layer_1" xmlns="http://www.w3.org/2000/svg" xmlns:xlink="http://www.w3.org/1999/xlink" x="0px" y="0px"
	 viewBox="0 0 512 512" style="enable-background:new 0 0 512 512;" xml:space="preserve">
<g>
	<path style="fill:#2D527C;" d="M327.637,512c-7.876,0-14.262-6.385-14.262-14.262V380.984c0-7.877,6.387-14.262,14.262-14.262
		c7.876,0,14.262,6.385,14.262,14.262v116.754C341.9,505.615,335.513,512,327.637,512z"/>
	<path style="fill:#2D527C;" d="M327.637,340.529c-56.467,0-107.823-33.332-130.834-84.918c-3.209-7.192,0.021-15.626,7.215-18.835
		s15.626,0.021,18.836,7.215c18.431,41.316,59.562,68.013,104.784,68.013c7.876,0,14.262,6.385,14.262,14.262
		C341.901,334.144,335.513,340.529,327.637,340.529z"/>
	<path style="fill:#2D527C;" d="M456.577,211.586c-7.876,0-14.262-6.385-14.262-14.262c0-63.234-51.444-114.679-114.678-114.679
		c-9.363,0-18.695,1.138-27.736,3.383c-7.642,1.894-15.379-2.761-17.277-10.406s2.761-15.38,10.406-17.279
		c11.286-2.801,22.929-4.222,34.609-4.222c78.961,0,143.202,64.241,143.202,143.203
		C470.839,205.201,464.453,211.586,456.577,211.586z"/>
	<path style="fill:#2D527C;" d="M327.637,395.246c-14.589,0-28.423-3.111-38.957-8.758c-14.295-7.664-22.169-19.656-22.169-33.767
		c0-9.667,4.426-21.854,13.927-38.354c3.253-5.651,9.925-8.378,16.206-6.616c10.078,2.822,20.506,4.254,30.993,4.254
		c7.876,0,14.262,6.385,14.262,14.262s-6.387,14.262-14.262,14.262c-9.23,0-18.424-0.889-27.456-2.648
		c-4.843,9.885-5.146,13.978-5.146,14.84c0,7.589,14.93,14.001,32.602,14.001s32.6-6.412,32.6-14.001
		c0-7.877,6.387-14.262,14.262-14.262c7.876,0,14.262,6.385,14.262,14.262C388.762,377.759,363.627,395.246,327.637,395.246z"/>
	<path style="fill:#2D527C;" d="M184.363,457.879c-7.876,0-14.262-6.385-14.262-14.262v-130.63c0-7.877,6.387-14.262,14.262-14.262
		s14.262,6.385,14.262,14.262v130.63C198.625,451.494,192.238,457.879,184.363,457.879z"/>
</g>
<path style="fill:#CEE8FA;" d="M137.497,298.6c0-23.431,46.864-81.17,46.864-81.17s46.864,57.739,46.864,81.17
	C231.225,336.285,137.497,336.285,137.497,298.6z"/>
<path style="fill:#2D527C;" d="M184.361,341.125c-35.989,0-61.125-17.488-61.125-42.525c0-26.438,38.311-75.692,50.053-90.16
	c2.708-3.336,6.777-5.274,11.075-5.274l0,0c4.297,0,8.365,1.937,11.075,5.274c11.741,14.466,50.052,63.722,50.052,90.158
	C245.487,323.637,220.352,341.125,184.361,341.125z M184.363,240.725c-17.227,23.27-32.602,48.824-32.602,57.874
	c0,7.589,14.93,14.001,32.6,14.001c17.674,0,32.602-6.412,32.602-14.001C216.963,289.549,201.59,263.995,184.363,240.725z"/>
<circle style="fill:#CEE8FA;" cx="184.365" cy="143.206" r="128.944"/>
<path style="fill:#2D527C;" d="M184.363,286.407c-78.962,0-143.203-64.241-143.203-143.203S105.399,0,184.363,0
	s143.203,64.241,143.203,143.203S263.325,286.407,184.363,286.407z M184.363,28.524c-63.234,0-114.679,51.445-114.679,114.679
	s51.445,114.679,114.679,114.679s114.679-51.445,114.679-114.679S247.595,28.524,184.363,28.524z"/>
<g>
</g>
<g>
</g>
<g>
</g>
<g>
</g>
<g>
</g>
<g>
</g>
<g>
</g>
<g>
</g>
<g>
</g>
<g>
</g>
<g>
</g>
<g>
</g>
<g>
</g>
<g>
</g>
<g>
</g>
</svg>
